<svg width="44" height="42" viewBox="0 0 44 42" fill="none" xmlns="http://www.w3.org/2000/svg">
<path fill-rule="evenodd" clip-rule="evenodd" d="M27.3908 0L9.68146 14.3232C7.08381 16.4242 6.89489 20.2506 9.27351 22.586L15.4002 28.6012C17.1977 30.366 17.5867 33.0781 16.3548 35.2575L12.5434 42H6.23333C3.0669 42 0.5 39.4928 0.5 36.4V5.6C0.5 2.50721 3.0669 0 6.23333 0H27.3908ZM30.7173 0L27.4094 5.88581C26.1898 8.0559 26.5737 10.7507 28.3535 12.5131L34.8529 18.949C37.2263 21.2993 37.0139 25.1347 34.3948 27.2212L15.8435 42H37.7667C40.9331 42 43.5 39.4928 43.5 36.4V5.6C43.5 2.50721 40.9331 0 37.7667 0H30.7173Z" fill="white"/>
</svg>
